<svg width="143" height="83" viewBox="0 0 143 83" fill="none" xmlns="http://www.w3.org/2000/svg">
<path d="M1.33043 79.7288C0.363976 81.053 1.31365 82.9136 2.953 82.9078L79.5574 82.6368C80.6592 82.6329 81.5504 81.7386 81.5503 80.6367L81.5498 67.006C81.5497 65.9014 82.4452 65.006 83.5498 65.006H111.461C112.154 65.006 112.797 65.3639 113.161 65.9522L122.914 81.6848C123.278 82.2724 123.92 82.6302 124.612 82.631L140.679 82.6499C142.293 82.6518 143.244 80.8394 142.326 79.512L87.9161 0.862359C87.5425 0.322315 86.9276 8.1618e-05 86.2709 0.00021837L59.8019 0.00573046C59.1593 0.00586429 58.5559 0.314806 58.18 0.836102L49.5284 12.8363C48.5747 14.1591 49.52 16.0059 51.1508 16.0059H63.0002C64.1048 16.0059 65.0003 16.9014 65.0003 18.0059V63.006C65.0003 64.1105 64.1048 65.006 63.0003 65.006H36.1074C34.5186 65.006 33.5641 63.2425 34.433 61.9123L41.9576 50.3917C42.8264 49.0614 41.8719 47.298 40.2831 47.298H26.0163C25.3776 47.298 24.7774 47.6031 24.4008 48.1189L1.33043 79.7288ZM81.5484 23.0835C81.549 21.0659 84.1975 20.3183 85.2529 22.0377L99.6301 45.4597C100.448 46.7923 99.4892 48.5059 97.9256 48.5059H83.5419C82.4371 48.5059 81.5416 47.6102 81.5419 46.5054L81.5484 23.0835Z" fill="white"/>
</svg>
